<svg xmlns="http://www.w3.org/2000/svg" viewBox="0 0 700.28 455.59"><defs><style>.cls-1,.cls-10,.cls-9{fill:#fff;}.cls-2{fill:#ef4d3c;}.cls-3{fill:#8cc63e;}.cls-4{fill:#64892f;}.cls-5{fill:#75a843;}.cls-6{fill:#f4bc58;}.cls-7{fill:#fc6;}.cls-8{fill:#83bf4f;}.cls-9{font-size:347.38px;font-family:MyriadPro-Regular, Myriad Pro;}.cls-10{font-size:23px;font-family:OCRAExtended, OCR A Extended;}</style></defs><g id="Layer_1" data-name="Layer 1"><text x="-593.15" y="-277.44"/><path class="cls-1" d="M672.25,436h48.44q43.06,0,43.07,33.89,0,16.8-14.75,27.93,21.39,9.27,21.39,33.1,0,18.27-12.6,29.11a36,36,0,0,1-13.18,7.22q-7,2.06-19,2H711.9V538.53c0-9,0-12.1,0-16.82,0-7.76.18-18.94.64-32.71,1.38.28,9.28,1.75,16.2-3.36a18.41,18.41,0,0,0,7-10.09,19,19,0,0,0-2.45-14.68,22.08,22.08,0,0,0-13.76-7,21.37,21.37,0,0,0-11,1.84,16.61,16.61,0,0,0-7.34,7,17,17,0,0,0-1.09,12.61s.08.26.17.53c2.44,7.38,12,13,12.23,13.15,4.89,2.9,7.85,19.62-.64,80.28H672.25Z" transform="translate(-593.15 -277.44)"/><path class="cls-1" d="M820.2,436V476.7q9.28-6.74,18.56-6.73,14.06,0,22.31,10.15t8.25,27.44v61.72H832.8V517.82q0-6.26-1.32-8.4c-.88-1.43-2.58-2.15-5.12-2.15q-6.17,0-6.16,9.08v52.93H783.68V436Z" transform="translate(-593.15 -277.44)"/><path class="cls-1" d="M944.72,532.76v37.79a48.35,48.35,0,0,1-8.21.78q-22,0-36.62-14.45t-14.65-36.23q0-21.19,14.8-35.94T936,470q23.64,0,37.26,13.81t13.62,37.75v47.75H950.38V524.17q0-7.73-3.76-12.31a12.4,12.4,0,0,0-10.11-4.59,14.37,14.37,0,0,0-10.35,24.12,12.91,12.91,0,0,0,9.67,3.91A16.62,16.62,0,0,0,944.72,532.76Z" transform="translate(-593.15 -277.44)"/><path class="cls-1" d="M1132.12,524.46l36.23-1.37q-1.56,21.09-15.72,34.67t-34.48,13.57q-21.48,0-36.28-14.94t-14.79-36.62q0-20.59,14.94-35.25a50.6,50.6,0,0,1,85.45,26.27l-37,1.36a14.68,14.68,0,0,0-12.11-6.25,13.7,13.7,0,0,0-10.26,4.11,14.19,14.19,0,0,0-4,10.35,14.54,14.54,0,0,0,4.25,10.64,14.26,14.26,0,0,0,10.59,4.3Q1128.21,535.3,1132.12,524.46Z" transform="translate(-593.15 -277.44)"/><path class="cls-2" d="M1291.57,518.2c1.6,28.76-23.77,53.21-54.15,53.21s-57.38-25.93-54.31-54.56c4.31-40.33,33.16-43,54.31-43C1250.29,473.82,1288.46,462.26,1291.57,518.2Z" transform="translate(-593.15 -277.44)"/><path class="cls-3" d="M1199.15,509.51c11.2-18.1,30.49-12.77,35.57-19.44,0,12.89,9,6.64,13.62,12.44,5.89,7.47,8,20.85,14.81,23.48-6.66-14.82,4.25-14.24-11.09-34.13,8.08,5.2,12.27-.06,23.3,4.62-9.44-16-24.54-11.35-24.54-11.35s9.5-9,17.41-4.3c-8.38-12.77-32.39,3.46-32.39,3.46s-10-17.77-31.44.84c12.45-5.26,26.37,0,26.37,0S1208.06,479.29,1199.15,509.51Z" transform="translate(-593.15 -277.44)"/><path class="cls-4" d="M1199.15,509.51s13.15-25.28,36-23C1215.07,476.79,1199.15,497.12,1199.15,509.51Z" transform="translate(-593.15 -277.44)"/><path class="cls-4" d="M1204.4,485.13s16.69-13,31.44,0C1231.41,469.22,1209.17,476.66,1204.4,485.13Z" transform="translate(-593.15 -277.44)"/><path class="cls-4" d="M1239.44,486.67c22.06,10.58,14.63,22.45,23.71,39.33C1257.09,512.05,1272.18,486.67,1239.44,486.67Z" transform="translate(-593.15 -277.44)"/><path class="cls-4" d="M1230.77,485.13a54.32,54.32,0,0,0,6.9-17.63c.24-1.29,5.56-1.17,5.39.13-1.73,12.63,3,19.61,3,19.61a28.69,28.69,0,0,1-8.56,1.35A8.27,8.27,0,0,1,1230.77,485.13Z" transform="translate(-593.15 -277.44)"/><path class="cls-3" d="M1240.36,466.31c1.49,0,2.7.53,2.7,1.19s-1.21,1.2-2.7,1.2-2.69-.54-2.69-1.2S1238.87,466.31,1240.36,466.31Z" transform="translate(-593.15 -277.44)"/><path class="cls-5" d="M1009.43,497.76a142.31,142.31,0,0,0-3.85,18.54,111.66,111.66,0,0,0-1,18.43,108.4,108.4,0,0,0,2,17.35c.56,2.76,1.21,5.46,2,8.06s1.57,5.15,2.51,7.58a38.2,38.2,0,0,1-3.32-6.65,65.05,65.05,0,0,1-2.5-7.78,82.19,82.19,0,0,1-2.5-17.84,93.38,93.38,0,0,1,1.4-19.36A90.22,90.22,0,0,1,1009.43,497.76Z" transform="translate(-593.15 -277.44)"/><path class="cls-5" d="M1057,506.37A117.81,117.81,0,0,0,1044.29,517a112,112,0,0,0-11.8,13.63,133.3,133.3,0,0,0-10.42,16.74q-2.39,4.56-4.54,9.46c-1.44,3.27-2.78,6.64-4,10.17a89.06,89.06,0,0,1,3.26-10.85c1.28-3.5,2.69-6.9,4.24-10.14a107.47,107.47,0,0,1,10.45-17.67A80.23,80.23,0,0,1,1043.8,515,53.73,53.73,0,0,1,1057,506.37Z" transform="translate(-593.15 -277.44)"/><path class="cls-6" d="M1034.47,474.91c-2.29,3.32-5.22,1.66-5.22,1.66s-.4-5.35,1.89-8.67,6.68-3.78,6.68-3.78S1036.76,471.59,1034.47,474.91Z" transform="translate(-593.15 -277.44)"/><path class="cls-6" d="M1028.14,474.65a10.89,10.89,0,0,1-2.52,6.44,6.16,6.16,0,0,1-2.24-5.32c.09-3.78,2.57-8.85,2.57-8.85A17.34,17.34,0,0,1,1028.14,474.65Z" transform="translate(-593.15 -277.44)"/><path class="cls-6" d="M1029.8,485.4c-2.25.53-3.41-3.15-3.41-3.15s1.35-4.28,3.6-4.81,4.86,2.81,4.86,2.81S1032.06,484.87,1029.8,485.4Z" transform="translate(-593.15 -277.44)"/><path class="cls-6" d="M1023.16,483.43a11.77,11.77,0,0,1-2.07,6.78s-2.47-1-2.67-4.67,1.94-9.13,1.94-9.13A14.35,14.35,0,0,1,1023.16,483.43Z" transform="translate(-593.15 -277.44)"/><path class="cls-6" d="M1025.67,493.48c-2.25,1-3.7-2.31-3.7-2.31s1-4.44,3.29-5.44,5.14,1.67,5.14,1.67S1027.92,492.48,1025.67,493.48Z" transform="translate(-593.15 -277.44)"/><path class="cls-6" d="M1019.27,492.8a13,13,0,0,1-1.76,7.3s-2.69-.56-3.12-4.28,1.48-9.68,1.48-9.68A12.79,12.79,0,0,1,1019.27,492.8Z" transform="translate(-593.15 -277.44)"/><path class="cls-6" d="M1022.57,502.62c-2.32,1.43-4.07-1.7-4.07-1.7s.82-4.72,3.14-6.15,5.55.79,5.55.79S1024.89,501.19,1022.57,502.62Z" transform="translate(-593.15 -277.44)"/><path class="cls-6" d="M1015.31,504.08c.89,3.77-1.17,8.2-1.17,8.2s-3,.26-3.95-3.5.59-10.61.59-10.61S1014.41,500.32,1015.31,504.08Z" transform="translate(-593.15 -277.44)"/><path class="cls-6" d="M1020.05,513.33c-2.43,2.23-4.72-.5-4.72-.5s.4-5.2,2.83-7.43,6.27-.92,6.27-.92S1022.48,511.1,1020.05,513.33Z" transform="translate(-593.15 -277.44)"/><path class="cls-6" d="M1011.84,517.5c1.26,3.66-.6,8.67-.6,8.67a3.69,3.69,0,0,1-4.52-2.71c-1.26-3.66-.2-11-.2-11S1010.58,513.84,1011.84,517.5Z" transform="translate(-593.15 -277.44)"/><path class="cls-6" d="M1017.66,525.94a3.51,3.51,0,0,1-5.1.53s0-5.42,2.45-8.25,6.66-2.34,6.66-2.34S1020.09,523.11,1017.66,525.94Z" transform="translate(-593.15 -277.44)"/><path class="cls-6" d="M1029.44,476.48a82.47,82.47,0,0,0-9.7,20.38q-1.89,5.64-3.34,11.54c-1,3.92-1.85,7.9-2.59,11.91s-1.42,8.05-2,12.09-1.08,8.12-1.53,12.19-.82,8.14-1.14,12.21-.59,8.15-.79,12.22c-.12-4,0-8,.09-12.12s.4-8.18.74-12.28.79-8.23,1.32-12.34,1.2-8.22,2-12.31,1.67-8.15,2.72-12.14,2.24-7.93,3.63-11.7a86.3,86.3,0,0,1,4.73-10.76A50.64,50.64,0,0,1,1029.44,476.48Z" transform="translate(-593.15 -277.44)"/><path class="cls-7" d="M1063.77,466.91c-3.4,3-6.55-.88-6.55-.88s.61-7.25,4-10.28,8.73-1.06,8.73-1.06S1067.17,463.88,1063.77,466.91Z" transform="translate(-593.15 -277.44)"/><path class="cls-7" d="M1056.28,462.87a10.54,10.54,0,0,1-4.31,7,11.44,11.44,0,0,1-1.57-8.29c.87-4.91,4.87-10.12,4.87-10.12S1057.16,458,1056.28,462.87Z" transform="translate(-593.15 -277.44)"/><path class="cls-7" d="M1056.07,478c-2.8-.62-3.42-6.14-3.42-6.14s2.48-4.83,5.27-4.21,5.21,6.53,5.21,6.53S1058.86,478.58,1056.07,478Z" transform="translate(-593.15 -277.44)"/><path class="cls-7" d="M1048.57,471.49a12.25,12.25,0,0,1-3.85,7.7,9.76,9.76,0,0,1-2.23-7.69c.52-4.95,4.18-10.86,4.18-10.86S1049.09,466.54,1048.57,471.49Z" transform="translate(-593.15 -277.44)"/><path class="cls-7" d="M1049.5,486.17c-2.88,0-3.93-5.21-3.93-5.21s2.14-5.22,5-5.23,5.77,5.21,5.77,5.21S1052.38,486.16,1049.5,486.17Z" transform="translate(-593.15 -277.44)"/><path class="cls-7" d="M1042,481.54a14.12,14.12,0,0,1-3.6,8.55s-3.08-2.3-2.84-7.45,3.74-11.85,3.74-11.85S1042.27,476.39,1042,481.54Z" transform="translate(-593.15 -277.44)"/><path class="cls-7" d="M1043.94,496.36c-3.06.52-4.5-4.61-4.5-4.61s2-5.72,5-6.24,6.45,4.28,6.45,4.28S1047,495.84,1043.94,496.36Z" transform="translate(-593.15 -277.44)"/><path class="cls-7" d="M1035,494a17.58,17.58,0,0,1-3.06,10.09s-3.69-1.44-4-6.91,2.86-13.58,2.86-13.58S1034.7,488.57,1035,494Z" transform="translate(-593.15 -277.44)"/><path class="cls-7" d="M1038.75,509c-3.34,1.51-5.51-3.42-5.51-3.42s1.54-6.59,4.88-8.1,7.65,2.45,7.65,2.45S1042.1,507.45,1038.75,509Z" transform="translate(-593.15 -277.44)"/><path class="cls-7" d="M1028.13,509.65c.75,5.55-2.49,11-2.49,11s-4.08-.66-4.82-6.21,2-14.59,2-14.59S1027.38,504.1,1028.13,509.65Z" transform="translate(-593.15 -277.44)"/><path class="cls-7" d="M1033.33,524.13c-3.47,2.3-6.18-2.28-6.18-2.28s1.13-7.12,4.61-9.41,8.4.81,8.4.81S1036.81,521.83,1033.33,524.13Z" transform="translate(-593.15 -277.44)"/><path class="cls-7" d="M1057.46,466c-5.94,5.29-11.18,12.73-15.71,21.1-2.26,4.21-4.39,8.62-6.34,13.21s-3.81,9.31-5.52,14.14-3.33,9.74-4.85,14.73-2.94,10-4.31,15.1-2.64,10.22-3.85,15.38-2.37,10.37-3.44,15.6c.68-5.31,1.6-10.6,2.59-15.87s2.14-10.51,3.39-15.7,2.62-10.34,4.09-15.44,3.11-10.1,4.85-15,3.65-9.73,5.71-14.36a136.83,136.83,0,0,1,6.73-13.25,82.31,82.31,0,0,1,7.82-11.37A43.58,43.58,0,0,1,1057.46,466Z" transform="translate(-593.15 -277.44)"/><path class="cls-8" d="M1039.28,527.87a28.7,28.7,0,0,0-9.07,3.19,30.45,30.45,0,0,0-8.36,7.27,56.5,56.5,0,0,0-7,11.22c-1,2.13-2,4.35-2.86,6.67s-1.72,4.68-2.46,7.16a59.31,59.31,0,0,1,1.69-7.72,67.36,67.36,0,0,1,2.54-7.33,48.56,48.56,0,0,1,7.16-12.42,24.07,24.07,0,0,1,9.07-7.17A14.64,14.64,0,0,1,1039.28,527.87Z" transform="translate(-593.15 -277.44)"/><text class="cls-9" transform="translate(0 290.76) scale(1.02 1)">.</text><text class="cls-10" transform="translate(16.56 348.2) scale(1.3 1)">CONNECTING GROWERS, TRANSFORMING LIVES</text></g></svg>